<mxfile host="app.diagrams.net" modified="2023-06-05T01:54:44.408Z" agent="Mozilla/5.0 (Macintosh; Intel Mac OS X 10_15_7) AppleWebKit/537.36 (KHTML, like Gecko) Chrome/113.0.0.0 Safari/537.36" etag="gOcc057kG6kXsuYZj1vd" version="21.3.7" type="device">
  <diagram name="Strona-1" id="7sL7jSqanu6i5b_uf_2S">
    <mxGraphModel dx="10279" dy="8460" grid="1" gridSize="10" guides="1" tooltips="1" connect="1" arrows="1" fold="1" page="1" pageScale="1" pageWidth="2339" pageHeight="3300" math="0" shadow="0">
      <root>
        <mxCell id="0" />
        <mxCell id="1" parent="0" />
        <mxCell id="AY2gD50rp5HrpWtKRoe6-64" value="&lt;font style=&quot;font-size: 14px;&quot;&gt;Use Case Diagram&amp;nbsp;for Flashcard Management Application&lt;/font&gt;" style="swimlane;horizontal=0;whiteSpace=wrap;html=1;" parent="1" vertex="1">
          <mxGeometry x="-2309" y="-2807" width="2280" height="2315" as="geometry" />
        </mxCell>
        <mxCell id="7BKQluUsZdrJ60i_VSlW-29" value="Application" style="shape=umlActor;verticalLabelPosition=bottom;verticalAlign=top;html=1;fillColor=#000000;" vertex="1" parent="AY2gD50rp5HrpWtKRoe6-64">
          <mxGeometry x="1120" y="2058" width="40" height="80" as="geometry" />
        </mxCell>
        <mxCell id="7BKQluUsZdrJ60i_VSlW-34" value="User" style="shape=umlActor;verticalLabelPosition=bottom;verticalAlign=top;html=1;fillColor=#d5e8d4;strokeColor=#82b366;" vertex="1" parent="AY2gD50rp5HrpWtKRoe6-64">
          <mxGeometry x="660" y="215" width="40" height="80" as="geometry" />
        </mxCell>
        <mxCell id="7BKQluUsZdrJ60i_VSlW-39" value="&lt;font style=&quot;font-size: 14px;&quot;&gt;Display a list&lt;br&gt;of decks&lt;/font&gt;" style="ellipse;whiteSpace=wrap;html=1;fillColor=#dae8fc;strokeColor=#6c8ebf;" vertex="1" parent="AY2gD50rp5HrpWtKRoe6-64">
          <mxGeometry x="1530" y="245" width="140" height="70" as="geometry" />
        </mxCell>
        <mxCell id="7BKQluUsZdrJ60i_VSlW-40" value="&lt;font style=&quot;font-size: 14px;&quot;&gt;Sort Decks&lt;/font&gt;" style="ellipse;whiteSpace=wrap;html=1;fillColor=#dae8fc;strokeColor=#6c8ebf;" vertex="1" parent="AY2gD50rp5HrpWtKRoe6-64">
          <mxGeometry x="1530" y="355" width="140" height="70" as="geometry" />
        </mxCell>
        <mxCell id="7BKQluUsZdrJ60i_VSlW-41" value="&lt;font style=&quot;font-size: 14px;&quot;&gt;Select Decks&lt;/font&gt;" style="ellipse;whiteSpace=wrap;html=1;fillColor=#dae8fc;strokeColor=#6c8ebf;" vertex="1" parent="AY2gD50rp5HrpWtKRoe6-64">
          <mxGeometry x="1530" y="465" width="140" height="70" as="geometry" />
        </mxCell>
        <mxCell id="7BKQluUsZdrJ60i_VSlW-42" value="&lt;font style=&quot;font-size: 14px;&quot;&gt;Collection Management&lt;/font&gt;" style="shape=umlFrame;whiteSpace=wrap;html=1;pointerEvents=0;width=170;height=30;fillColor=#fff2cc;strokeColor=#d6b656;" vertex="1" parent="AY2gD50rp5HrpWtKRoe6-64">
          <mxGeometry x="1450" y="175" width="300" height="1170" as="geometry" />
        </mxCell>
        <mxCell id="7BKQluUsZdrJ60i_VSlW-47" value="&lt;font style=&quot;font-size: 14px;&quot;&gt;Remove Decks&lt;/font&gt;" style="ellipse;whiteSpace=wrap;html=1;fillColor=#dae8fc;strokeColor=#6c8ebf;" vertex="1" parent="AY2gD50rp5HrpWtKRoe6-64">
          <mxGeometry x="1530" y="905" width="140" height="70" as="geometry" />
        </mxCell>
        <mxCell id="7BKQluUsZdrJ60i_VSlW-51" value="&lt;font style=&quot;font-size: 14px;&quot;&gt;Export Decks&lt;/font&gt;" style="ellipse;whiteSpace=wrap;html=1;fillColor=#dae8fc;strokeColor=#6c8ebf;" vertex="1" parent="AY2gD50rp5HrpWtKRoe6-64">
          <mxGeometry x="1530" y="1125" width="140" height="70" as="geometry" />
        </mxCell>
        <mxCell id="7BKQluUsZdrJ60i_VSlW-54" value="&lt;font style=&quot;font-size: 14px;&quot;&gt;Study Playlist&lt;br&gt;Creation&lt;/font&gt;" style="ellipse;whiteSpace=wrap;html=1;fillColor=#dae8fc;strokeColor=#6c8ebf;" vertex="1" parent="AY2gD50rp5HrpWtKRoe6-64">
          <mxGeometry x="1530" y="1575" width="140" height="70" as="geometry" />
        </mxCell>
        <mxCell id="7BKQluUsZdrJ60i_VSlW-56" value="&lt;font style=&quot;font-size: 14px;&quot;&gt;Import&amp;nbsp;Decks&lt;/font&gt;" style="ellipse;whiteSpace=wrap;html=1;fillColor=#dae8fc;strokeColor=#6c8ebf;" vertex="1" parent="AY2gD50rp5HrpWtKRoe6-64">
          <mxGeometry x="1530" y="1015" width="140" height="70" as="geometry" />
        </mxCell>
        <mxCell id="7BKQluUsZdrJ60i_VSlW-57" value="&lt;font style=&quot;font-size: 14px;&quot;&gt;Merge Decks&lt;/font&gt;" style="ellipse;whiteSpace=wrap;html=1;fillColor=#dae8fc;strokeColor=#6c8ebf;" vertex="1" parent="AY2gD50rp5HrpWtKRoe6-64">
          <mxGeometry x="1530" y="795" width="140" height="70" as="geometry" />
        </mxCell>
        <mxCell id="7BKQluUsZdrJ60i_VSlW-60" value="&lt;font style=&quot;font-size: 14px;&quot;&gt;Edit Deck&lt;/font&gt;" style="ellipse;whiteSpace=wrap;html=1;fillColor=#dae8fc;strokeColor=#6c8ebf;" vertex="1" parent="AY2gD50rp5HrpWtKRoe6-64">
          <mxGeometry x="1530" y="685" width="140" height="70" as="geometry" />
        </mxCell>
        <mxCell id="7BKQluUsZdrJ60i_VSlW-68" value="&lt;font style=&quot;font-size: 14px;&quot;&gt;Select Difficulty&lt;br&gt;Level&lt;/font&gt;" style="ellipse;whiteSpace=wrap;html=1;fillColor=#dae8fc;strokeColor=#6c8ebf;" vertex="1" parent="AY2gD50rp5HrpWtKRoe6-64">
          <mxGeometry x="1530" y="1685" width="140" height="70" as="geometry" />
        </mxCell>
        <mxCell id="7BKQluUsZdrJ60i_VSlW-69" value="&lt;font style=&quot;font-size: 14px;&quot;&gt;Select Study&lt;br&gt;Mode&lt;/font&gt;" style="ellipse;whiteSpace=wrap;html=1;fillColor=#dae8fc;strokeColor=#6c8ebf;" vertex="1" parent="AY2gD50rp5HrpWtKRoe6-64">
          <mxGeometry x="1530" y="1795" width="140" height="70" as="geometry" />
        </mxCell>
        <mxCell id="7BKQluUsZdrJ60i_VSlW-70" value="&lt;font style=&quot;font-size: 14px;&quot;&gt;Select Engagement Mode&lt;/font&gt;" style="ellipse;whiteSpace=wrap;html=1;fillColor=#dae8fc;strokeColor=#6c8ebf;" vertex="1" parent="AY2gD50rp5HrpWtKRoe6-64">
          <mxGeometry x="1530" y="1905" width="140" height="70" as="geometry" />
        </mxCell>
        <mxCell id="7BKQluUsZdrJ60i_VSlW-72" value="&lt;font style=&quot;font-size: 14px;&quot;&gt;Start Study&lt;br&gt;Session&lt;/font&gt;" style="ellipse;whiteSpace=wrap;html=1;fillColor=#dae8fc;strokeColor=#6c8ebf;" vertex="1" parent="AY2gD50rp5HrpWtKRoe6-64">
          <mxGeometry x="1530" y="1235" width="140" height="70" as="geometry" />
        </mxCell>
        <mxCell id="7BKQluUsZdrJ60i_VSlW-73" value="&lt;font style=&quot;font-size: 14px;&quot;&gt;Study Process Management&lt;/font&gt;" style="shape=umlFrame;whiteSpace=wrap;html=1;pointerEvents=0;width=200;height=30;fillColor=#fff2cc;strokeColor=#d6b656;" vertex="1" parent="AY2gD50rp5HrpWtKRoe6-64">
          <mxGeometry x="1450" y="1505" width="300" height="510" as="geometry" />
        </mxCell>
        <mxCell id="7BKQluUsZdrJ60i_VSlW-80" value="&lt;font style=&quot;font-size: 14px;&quot;&gt;&lt;font style=&quot;font-size: 14px;&quot;&gt;Flashcard&lt;/font&gt;&amp;nbsp;Management&lt;/font&gt;" style="shape=umlFrame;whiteSpace=wrap;html=1;pointerEvents=0;width=170;height=30;fillColor=#fff2cc;strokeColor=#d6b656;" vertex="1" parent="AY2gD50rp5HrpWtKRoe6-64">
          <mxGeometry x="530" y="1055" width="300" height="950" as="geometry" />
        </mxCell>
        <mxCell id="7BKQluUsZdrJ60i_VSlW-81" value="&lt;font style=&quot;font-size: 14px;&quot;&gt;Create Deck&lt;/font&gt;" style="ellipse;whiteSpace=wrap;html=1;fillColor=#dae8fc;strokeColor=#6c8ebf;" vertex="1" parent="AY2gD50rp5HrpWtKRoe6-64">
          <mxGeometry x="1070" y="575" width="140" height="70" as="geometry" />
        </mxCell>
        <mxCell id="7BKQluUsZdrJ60i_VSlW-82" value="&lt;font style=&quot;font-size: 14px;&quot;&gt;Deck Management&lt;/font&gt;" style="shape=umlFrame;whiteSpace=wrap;html=1;pointerEvents=0;width=145;height=30;fillColor=#fff2cc;strokeColor=#d6b656;" vertex="1" parent="AY2gD50rp5HrpWtKRoe6-64">
          <mxGeometry x="990" y="505" width="300" height="1165" as="geometry" />
        </mxCell>
        <mxCell id="7BKQluUsZdrJ60i_VSlW-83" value="&lt;font style=&quot;font-size: 14px;&quot;&gt;Set Deck&lt;br&gt;Tag&lt;/font&gt;" style="ellipse;whiteSpace=wrap;html=1;fillColor=#dae8fc;strokeColor=#6c8ebf;" vertex="1" parent="AY2gD50rp5HrpWtKRoe6-64">
          <mxGeometry x="1070" y="1015" width="140" height="70" as="geometry" />
        </mxCell>
        <mxCell id="7BKQluUsZdrJ60i_VSlW-84" value="&lt;font style=&quot;font-size: 14px;&quot;&gt;Set Deck&lt;br&gt;Category&lt;/font&gt;" style="ellipse;whiteSpace=wrap;html=1;fillColor=#dae8fc;strokeColor=#6c8ebf;" vertex="1" parent="AY2gD50rp5HrpWtKRoe6-64">
          <mxGeometry x="1070" y="905" width="140" height="70" as="geometry" />
        </mxCell>
        <mxCell id="7BKQluUsZdrJ60i_VSlW-85" value="&lt;font style=&quot;font-size: 14px;&quot;&gt;Remove Deck&lt;br&gt;&lt;/font&gt;" style="ellipse;whiteSpace=wrap;html=1;fillColor=#dae8fc;strokeColor=#6c8ebf;" vertex="1" parent="AY2gD50rp5HrpWtKRoe6-64">
          <mxGeometry x="1070" y="1561" width="140" height="70" as="geometry" />
        </mxCell>
        <mxCell id="7BKQluUsZdrJ60i_VSlW-87" value="&lt;font style=&quot;font-size: 14px;&quot;&gt;Set Deck&lt;br&gt;Name&lt;br&gt;&lt;/font&gt;" style="ellipse;whiteSpace=wrap;html=1;fillColor=#dae8fc;strokeColor=#6c8ebf;" vertex="1" parent="AY2gD50rp5HrpWtKRoe6-64">
          <mxGeometry x="1070" y="684" width="140" height="70" as="geometry" />
        </mxCell>
        <mxCell id="7BKQluUsZdrJ60i_VSlW-88" value="&lt;font style=&quot;font-size: 14px;&quot;&gt;Add Flashcard&lt;/font&gt;" style="ellipse;whiteSpace=wrap;html=1;fillColor=#dae8fc;strokeColor=#6c8ebf;" vertex="1" parent="AY2gD50rp5HrpWtKRoe6-64">
          <mxGeometry x="1070" y="1125" width="140" height="70" as="geometry" />
        </mxCell>
        <mxCell id="7BKQluUsZdrJ60i_VSlW-89" value="&lt;font style=&quot;font-size: 14px;&quot;&gt;&lt;font style=&quot;border-color: var(--border-color); font-size: 14px;&quot;&gt;Select&amp;nbsp;&lt;/font&gt;Flashcards&lt;/font&gt;" style="ellipse;whiteSpace=wrap;html=1;fillColor=#dae8fc;strokeColor=#6c8ebf;" vertex="1" parent="AY2gD50rp5HrpWtKRoe6-64">
          <mxGeometry x="1070" y="1235" width="140" height="70" as="geometry" />
        </mxCell>
        <mxCell id="7BKQluUsZdrJ60i_VSlW-91" value="&lt;font style=&quot;font-size: 14px;&quot;&gt;&lt;font style=&quot;font-size: 14px;&quot;&gt;Remove&amp;nbsp;&lt;/font&gt;Flashcards&lt;/font&gt;" style="ellipse;whiteSpace=wrap;html=1;fillColor=#dae8fc;strokeColor=#6c8ebf;" vertex="1" parent="AY2gD50rp5HrpWtKRoe6-64">
          <mxGeometry x="1070" y="1455" width="140" height="70" as="geometry" />
        </mxCell>
        <mxCell id="7BKQluUsZdrJ60i_VSlW-92" value="&lt;font style=&quot;font-size: 14px;&quot;&gt;&lt;font style=&quot;font-size: 14px;&quot;&gt;Add&amp;nbsp;&lt;/font&gt;Deck&lt;/font&gt;" style="ellipse;whiteSpace=wrap;html=1;fillColor=#dae8fc;strokeColor=#6c8ebf;" vertex="1" parent="AY2gD50rp5HrpWtKRoe6-64">
          <mxGeometry x="1530" y="575" width="140" height="70" as="geometry" />
        </mxCell>
        <mxCell id="7BKQluUsZdrJ60i_VSlW-94" value="&lt;font style=&quot;font-size: 14px;&quot;&gt;&lt;font style=&quot;font-size: 14px;&quot;&gt;Create&amp;nbsp;&lt;/font&gt;Flashcard&lt;/font&gt;" style="ellipse;whiteSpace=wrap;html=1;fillColor=#dae8fc;strokeColor=#6c8ebf;" vertex="1" parent="AY2gD50rp5HrpWtKRoe6-64">
          <mxGeometry x="610" y="1125" width="140" height="70" as="geometry" />
        </mxCell>
        <mxCell id="7BKQluUsZdrJ60i_VSlW-95" value="&lt;font style=&quot;font-size: 14px;&quot;&gt;Set Flashcard Question&lt;/font&gt;" style="ellipse;whiteSpace=wrap;html=1;fillColor=#dae8fc;strokeColor=#6c8ebf;" vertex="1" parent="AY2gD50rp5HrpWtKRoe6-64">
          <mxGeometry x="610" y="1345" width="140" height="70" as="geometry" />
        </mxCell>
        <mxCell id="7BKQluUsZdrJ60i_VSlW-96" value="&lt;font style=&quot;&quot;&gt;&lt;font style=&quot;font-size: 14px;&quot;&gt;Set Deck&lt;br&gt;Cover&lt;/font&gt;&lt;br&gt;&lt;/font&gt;" style="ellipse;whiteSpace=wrap;html=1;fillColor=#dae8fc;strokeColor=#6c8ebf;" vertex="1" parent="AY2gD50rp5HrpWtKRoe6-64">
          <mxGeometry x="1070" y="795" width="140" height="70" as="geometry" />
        </mxCell>
        <mxCell id="7BKQluUsZdrJ60i_VSlW-97" value="&lt;font style=&quot;font-size: 14px;&quot;&gt;Set&amp;nbsp;Flashcard&lt;br&gt;Answer&lt;/font&gt;" style="ellipse;whiteSpace=wrap;html=1;fillColor=#dae8fc;strokeColor=#6c8ebf;" vertex="1" parent="AY2gD50rp5HrpWtKRoe6-64">
          <mxGeometry x="610" y="1565" width="140" height="70" as="geometry" />
        </mxCell>
        <mxCell id="7BKQluUsZdrJ60i_VSlW-99" value="&lt;font style=&quot;font-size: 14px;&quot;&gt;Set&amp;nbsp;Flashcard&lt;br&gt;Difficulty Level&lt;/font&gt;" style="ellipse;whiteSpace=wrap;html=1;fillColor=#dae8fc;strokeColor=#6c8ebf;" vertex="1" parent="AY2gD50rp5HrpWtKRoe6-64">
          <mxGeometry x="610" y="1675" width="140" height="70" as="geometry" />
        </mxCell>
        <mxCell id="7BKQluUsZdrJ60i_VSlW-100" value="&lt;font style=&quot;font-size: 14px;&quot;&gt;Set&amp;nbsp;Flashcard&lt;br&gt;Answer Time&lt;/font&gt;" style="ellipse;whiteSpace=wrap;html=1;fillColor=#dae8fc;strokeColor=#6c8ebf;" vertex="1" parent="AY2gD50rp5HrpWtKRoe6-64">
          <mxGeometry x="610" y="1785" width="140" height="70" as="geometry" />
        </mxCell>
        <mxCell id="7BKQluUsZdrJ60i_VSlW-101" value="&lt;font style=&quot;font-size: 14px;&quot;&gt;Remove&amp;nbsp;Flashcard&lt;/font&gt;" style="ellipse;whiteSpace=wrap;html=1;fillColor=#dae8fc;strokeColor=#6c8ebf;" vertex="1" parent="AY2gD50rp5HrpWtKRoe6-64">
          <mxGeometry x="610" y="1895" width="140" height="70" as="geometry" />
        </mxCell>
        <mxCell id="7BKQluUsZdrJ60i_VSlW-102" value="&lt;font style=&quot;font-size: 14px;&quot;&gt;&lt;font style=&quot;font-size: 14px;&quot;&gt;Set Flashcard Question&amp;nbsp;&lt;/font&gt;Type&lt;/font&gt;" style="ellipse;whiteSpace=wrap;html=1;fillColor=#dae8fc;strokeColor=#6c8ebf;" vertex="1" parent="AY2gD50rp5HrpWtKRoe6-64">
          <mxGeometry x="610" y="1235" width="140" height="70" as="geometry" />
        </mxCell>
        <mxCell id="7BKQluUsZdrJ60i_VSlW-103" value="&lt;font style=&quot;font-size: 14px;&quot;&gt;Set Flashcard&lt;br&gt;Answer Type&lt;/font&gt;" style="ellipse;whiteSpace=wrap;html=1;fillColor=#dae8fc;strokeColor=#6c8ebf;" vertex="1" parent="AY2gD50rp5HrpWtKRoe6-64">
          <mxGeometry x="610" y="1455" width="140" height="70" as="geometry" />
        </mxCell>
        <mxCell id="7BKQluUsZdrJ60i_VSlW-104" value="&lt;font style=&quot;font-size: 14px;&quot;&gt;Statistic Management&lt;/font&gt;" style="shape=umlFrame;whiteSpace=wrap;html=1;pointerEvents=0;width=170;height=30;fillColor=#fff2cc;strokeColor=#d6b656;" vertex="1" parent="AY2gD50rp5HrpWtKRoe6-64">
          <mxGeometry x="530" y="505" width="300" height="395" as="geometry" />
        </mxCell>
        <mxCell id="7BKQluUsZdrJ60i_VSlW-105" value="&lt;font style=&quot;font-size: 14px;&quot;&gt;View Statistic&lt;/font&gt;" style="ellipse;whiteSpace=wrap;html=1;fillColor=#dae8fc;strokeColor=#6c8ebf;" vertex="1" parent="AY2gD50rp5HrpWtKRoe6-64">
          <mxGeometry x="610" y="571" width="140" height="70" as="geometry" />
        </mxCell>
        <mxCell id="7BKQluUsZdrJ60i_VSlW-106" value="&lt;font style=&quot;font-size: 14px;&quot;&gt;Select Statistic&lt;br&gt;Type&lt;/font&gt;" style="ellipse;whiteSpace=wrap;html=1;fillColor=#dae8fc;strokeColor=#6c8ebf;" vertex="1" parent="AY2gD50rp5HrpWtKRoe6-64">
          <mxGeometry x="610" y="681" width="140" height="70" as="geometry" />
        </mxCell>
        <mxCell id="7BKQluUsZdrJ60i_VSlW-107" value="&lt;font style=&quot;font-size: 14px;&quot;&gt;Select Analysis&lt;br&gt;Interval&lt;/font&gt;" style="ellipse;whiteSpace=wrap;html=1;fillColor=#dae8fc;strokeColor=#6c8ebf;" vertex="1" parent="AY2gD50rp5HrpWtKRoe6-64">
          <mxGeometry x="610" y="791" width="140" height="70" as="geometry" />
        </mxCell>
        <mxCell id="7BKQluUsZdrJ60i_VSlW-109" value="" style="endArrow=none;html=1;edgeStyle=orthogonalEdgeStyle;rounded=0;entryX=0;entryY=0.5;entryDx=0;entryDy=0;exitX=1;exitY=0.3333333333333333;exitDx=0;exitDy=0;exitPerimeter=0;fillColor=#d5e8d4;strokeColor=#82b366;" edge="1" parent="AY2gD50rp5HrpWtKRoe6-64" source="7BKQluUsZdrJ60i_VSlW-34" target="7BKQluUsZdrJ60i_VSlW-39">
          <mxGeometry relative="1" as="geometry">
            <mxPoint x="790" y="565" as="sourcePoint" />
            <mxPoint x="950" y="565" as="targetPoint" />
            <Array as="points">
              <mxPoint x="700" y="241" />
              <mxPoint x="1530" y="241" />
            </Array>
          </mxGeometry>
        </mxCell>
        <mxCell id="7BKQluUsZdrJ60i_VSlW-112" value="" style="endArrow=none;html=1;edgeStyle=orthogonalEdgeStyle;rounded=0;exitX=0;exitY=0.5;exitDx=0;exitDy=0;fillColor=#d5e8d4;strokeColor=#82b366;entryX=0;entryY=0.3333333333333333;entryDx=0;entryDy=0;entryPerimeter=0;" edge="1" parent="AY2gD50rp5HrpWtKRoe6-64" source="7BKQluUsZdrJ60i_VSlW-105" target="7BKQluUsZdrJ60i_VSlW-34">
          <mxGeometry relative="1" as="geometry">
            <mxPoint x="710" y="635" as="sourcePoint" />
            <mxPoint x="650" y="242" as="targetPoint" />
            <Array as="points">
              <mxPoint x="450" y="606" />
              <mxPoint x="450" y="242" />
            </Array>
          </mxGeometry>
        </mxCell>
        <mxCell id="7BKQluUsZdrJ60i_VSlW-115" value="" style="endArrow=none;html=1;edgeStyle=orthogonalEdgeStyle;rounded=0;exitX=1;exitY=0.3333333333333333;exitDx=0;exitDy=0;exitPerimeter=0;entryX=1.001;entryY=0.5;entryDx=0;entryDy=0;entryPerimeter=0;" edge="1" parent="AY2gD50rp5HrpWtKRoe6-64" source="7BKQluUsZdrJ60i_VSlW-29" target="7BKQluUsZdrJ60i_VSlW-42">
          <mxGeometry relative="1" as="geometry">
            <mxPoint x="1080" y="2065" as="sourcePoint" />
            <mxPoint x="1830" y="735" as="targetPoint" />
            <Array as="points">
              <mxPoint x="1830" y="2085" />
              <mxPoint x="1830" y="760" />
            </Array>
          </mxGeometry>
        </mxCell>
        <mxCell id="7BKQluUsZdrJ60i_VSlW-118" value="" style="endArrow=none;html=1;edgeStyle=orthogonalEdgeStyle;rounded=0;entryX=0;entryY=0.3333333333333333;entryDx=0;entryDy=0;entryPerimeter=0;exitX=0;exitY=0.496;exitDx=0;exitDy=0;exitPerimeter=0;" edge="1" parent="AY2gD50rp5HrpWtKRoe6-64" source="7BKQluUsZdrJ60i_VSlW-104" target="7BKQluUsZdrJ60i_VSlW-29">
          <mxGeometry relative="1" as="geometry">
            <mxPoint x="530" y="581" as="sourcePoint" />
            <mxPoint x="860" y="1855" as="targetPoint" />
            <Array as="points">
              <mxPoint x="450" y="701" />
              <mxPoint x="450" y="2085" />
            </Array>
          </mxGeometry>
        </mxCell>
        <mxCell id="7BKQluUsZdrJ60i_VSlW-121" value="" style="endArrow=none;html=1;edgeStyle=orthogonalEdgeStyle;rounded=0;entryX=0.5;entryY=0;entryDx=0;entryDy=0;entryPerimeter=0;exitX=0.499;exitY=1;exitDx=0;exitDy=0;exitPerimeter=0;" edge="1" parent="AY2gD50rp5HrpWtKRoe6-64" source="7BKQluUsZdrJ60i_VSlW-82" target="7BKQluUsZdrJ60i_VSlW-29">
          <mxGeometry relative="1" as="geometry">
            <mxPoint x="1210" y="1635" as="sourcePoint" />
            <mxPoint x="1000" y="1245" as="targetPoint" />
          </mxGeometry>
        </mxCell>
        <mxCell id="7BKQluUsZdrJ60i_VSlW-133" value="" style="endArrow=none;html=1;edgeStyle=orthogonalEdgeStyle;rounded=0;entryX=0.499;entryY=1;entryDx=0;entryDy=0;entryPerimeter=0;" edge="1" parent="AY2gD50rp5HrpWtKRoe6-64" target="7BKQluUsZdrJ60i_VSlW-73">
          <mxGeometry relative="1" as="geometry">
            <mxPoint x="1600" y="2085" as="sourcePoint" />
            <mxPoint x="1599.78" y="2015" as="targetPoint" />
            <Array as="points">
              <mxPoint x="1600" y="2015" />
            </Array>
          </mxGeometry>
        </mxCell>
        <mxCell id="7BKQluUsZdrJ60i_VSlW-136" value="&lt;font style=&quot;font-size: 12px;&quot;&gt;&amp;lt;&amp;lt;extend&amp;gt;&amp;gt;&lt;/font&gt;" style="edgeStyle=orthogonalEdgeStyle;rounded=0;orthogonalLoop=1;jettySize=auto;html=1;fontSize=8;dashed=1;endArrow=none;endFill=0;entryX=0;entryY=0.5;entryDx=0;entryDy=0;endSize=10;startSize=10;jumpStyle=none;strokeWidth=1;startArrow=openThin;startFill=0;" edge="1" parent="AY2gD50rp5HrpWtKRoe6-64" target="7BKQluUsZdrJ60i_VSlW-41">
          <mxGeometry x="-0.398" relative="1" as="geometry">
            <mxPoint x="1530" y="281" as="sourcePoint" />
            <mxPoint x="1530" y="385" as="targetPoint" />
            <Array as="points">
              <mxPoint x="1490" y="281" />
              <mxPoint x="1490" y="500" />
            </Array>
            <mxPoint as="offset" />
          </mxGeometry>
        </mxCell>
        <mxCell id="7BKQluUsZdrJ60i_VSlW-137" value="&lt;font style=&quot;font-size: 12px;&quot;&gt;&amp;lt;&amp;lt;include&amp;gt;&amp;gt;&lt;/font&gt;" style="edgeStyle=orthogonalEdgeStyle;rounded=0;orthogonalLoop=1;jettySize=auto;html=1;fontSize=8;dashed=1;endArrow=none;endFill=0;entryX=1;entryY=0.5;entryDx=0;entryDy=0;endSize=10;startSize=10;jumpStyle=none;strokeWidth=1;startArrow=openThin;startFill=0;" edge="1" parent="AY2gD50rp5HrpWtKRoe6-64" target="7BKQluUsZdrJ60i_VSlW-40">
          <mxGeometry x="-0.0476" relative="1" as="geometry">
            <mxPoint x="1670" y="281" as="sourcePoint" />
            <mxPoint x="1739.95" y="390" as="targetPoint" />
            <Array as="points">
              <mxPoint x="1710" y="281" />
              <mxPoint x="1710" y="390" />
            </Array>
            <mxPoint as="offset" />
          </mxGeometry>
        </mxCell>
        <mxCell id="7BKQluUsZdrJ60i_VSlW-138" value="&lt;font style=&quot;font-size: 12px;&quot;&gt;&amp;lt;&amp;lt;extend&amp;gt;&amp;gt;&lt;/font&gt;" style="edgeStyle=orthogonalEdgeStyle;rounded=0;orthogonalLoop=1;jettySize=auto;html=1;fontSize=8;dashed=1;endArrow=none;endFill=0;entryX=1;entryY=0.5;entryDx=0;entryDy=0;endSize=10;startSize=10;jumpStyle=none;strokeWidth=1;startArrow=openThin;startFill=0;exitX=1.001;exitY=0.514;exitDx=0;exitDy=0;exitPerimeter=0;" edge="1" parent="AY2gD50rp5HrpWtKRoe6-64" source="7BKQluUsZdrJ60i_VSlW-41" target="7BKQluUsZdrJ60i_VSlW-72">
          <mxGeometry relative="1" as="geometry">
            <mxPoint x="1859.8899999999999" y="464.8899999999999" as="sourcePoint" />
            <mxPoint x="1859.8899999999999" y="683.8899999999999" as="targetPoint" />
            <Array as="points">
              <mxPoint x="1710" y="501" />
              <mxPoint x="1710" y="1270" />
            </Array>
            <mxPoint as="offset" />
          </mxGeometry>
        </mxCell>
        <mxCell id="7BKQluUsZdrJ60i_VSlW-141" value="" style="endArrow=none;endSize=10;dashed=1;html=1;rounded=0;entryX=1;entryY=0.5;entryDx=0;entryDy=0;endFill=0;startSize=10;" edge="1" parent="AY2gD50rp5HrpWtKRoe6-64">
          <mxGeometry width="160" relative="1" as="geometry">
            <mxPoint x="1710" y="829.8600000000001" as="sourcePoint" />
            <mxPoint x="1670" y="829.8600000000001" as="targetPoint" />
          </mxGeometry>
        </mxCell>
        <mxCell id="7BKQluUsZdrJ60i_VSlW-142" value="" style="endArrow=none;endSize=10;dashed=1;html=1;rounded=0;entryX=1;entryY=0.5;entryDx=0;entryDy=0;endFill=0;startSize=10;" edge="1" parent="AY2gD50rp5HrpWtKRoe6-64">
          <mxGeometry width="160" relative="1" as="geometry">
            <mxPoint x="1710" y="939.7" as="sourcePoint" />
            <mxPoint x="1670" y="939.7" as="targetPoint" />
          </mxGeometry>
        </mxCell>
        <mxCell id="7BKQluUsZdrJ60i_VSlW-143" value="" style="endArrow=none;endSize=10;dashed=1;html=1;rounded=0;entryX=1;entryY=0.5;entryDx=0;entryDy=0;endFill=0;startSize=10;" edge="1" parent="AY2gD50rp5HrpWtKRoe6-64">
          <mxGeometry width="160" relative="1" as="geometry">
            <mxPoint x="1710" y="1159.7" as="sourcePoint" />
            <mxPoint x="1670" y="1159.7" as="targetPoint" />
          </mxGeometry>
        </mxCell>
        <mxCell id="7BKQluUsZdrJ60i_VSlW-150" value="&lt;font style=&quot;font-size: 12px;&quot;&gt;&amp;lt;&amp;lt;include&amp;gt;&amp;gt;&lt;/font&gt;" style="edgeStyle=orthogonalEdgeStyle;rounded=0;orthogonalLoop=1;jettySize=auto;html=1;fontSize=8;dashed=1;endArrow=openThin;endFill=0;entryX=0;entryY=0.5;entryDx=0;entryDy=0;endSize=10;startSize=10;jumpStyle=none;strokeWidth=1;startArrow=none;startFill=0;exitX=0;exitY=0.5;exitDx=0;exitDy=0;" edge="1" parent="AY2gD50rp5HrpWtKRoe6-64" source="7BKQluUsZdrJ60i_VSlW-72" target="7BKQluUsZdrJ60i_VSlW-54">
          <mxGeometry relative="1" as="geometry">
            <mxPoint x="1370" y="1291" as="sourcePoint" />
            <mxPoint x="1370" y="1400" as="targetPoint" />
            <Array as="points">
              <mxPoint x="1370" y="1270" />
              <mxPoint x="1370" y="1610" />
            </Array>
            <mxPoint as="offset" />
          </mxGeometry>
        </mxCell>
        <mxCell id="7BKQluUsZdrJ60i_VSlW-151" value="&lt;font style=&quot;font-size: 12px;&quot;&gt;&amp;lt;&amp;lt;include&amp;gt;&amp;gt;&lt;/font&gt;" style="edgeStyle=orthogonalEdgeStyle;rounded=0;orthogonalLoop=1;jettySize=auto;html=1;fontSize=8;dashed=1;endArrow=openThin;endFill=0;entryX=1;entryY=0.5;entryDx=0;entryDy=0;endSize=10;startSize=10;jumpStyle=none;strokeWidth=1;startArrow=none;startFill=0;exitX=1.001;exitY=0.513;exitDx=0;exitDy=0;exitPerimeter=0;" edge="1" parent="AY2gD50rp5HrpWtKRoe6-64" source="7BKQluUsZdrJ60i_VSlW-54" target="7BKQluUsZdrJ60i_VSlW-70">
          <mxGeometry relative="1" as="geometry">
            <mxPoint x="2059.91" y="1515" as="sourcePoint" />
            <mxPoint x="2059.91" y="1855" as="targetPoint" />
            <Array as="points">
              <mxPoint x="1710" y="1611" />
              <mxPoint x="1710" y="1940" />
            </Array>
            <mxPoint as="offset" />
          </mxGeometry>
        </mxCell>
        <mxCell id="7BKQluUsZdrJ60i_VSlW-152" value="" style="endArrow=openThin;endSize=10;dashed=1;html=1;rounded=0;entryX=1;entryY=0.5;entryDx=0;entryDy=0;endFill=0;startSize=10;" edge="1" parent="AY2gD50rp5HrpWtKRoe6-64" target="7BKQluUsZdrJ60i_VSlW-68">
          <mxGeometry width="160" relative="1" as="geometry">
            <mxPoint x="1710" y="1719.72" as="sourcePoint" />
            <mxPoint x="1670" y="1719.72" as="targetPoint" />
          </mxGeometry>
        </mxCell>
        <mxCell id="7BKQluUsZdrJ60i_VSlW-153" value="" style="endArrow=openThin;endSize=10;dashed=1;html=1;rounded=0;entryX=1;entryY=0.5;entryDx=0;entryDy=0;endFill=0;startSize=10;" edge="1" parent="AY2gD50rp5HrpWtKRoe6-64" target="7BKQluUsZdrJ60i_VSlW-69">
          <mxGeometry width="160" relative="1" as="geometry">
            <mxPoint x="1710" y="1829.72" as="sourcePoint" />
            <mxPoint x="1670" y="1829.72" as="targetPoint" />
          </mxGeometry>
        </mxCell>
        <mxCell id="7BKQluUsZdrJ60i_VSlW-154" value="&lt;font style=&quot;font-size: 12px;&quot;&gt;&amp;lt;&amp;lt;include&amp;gt;&amp;gt;&lt;/font&gt;" style="edgeStyle=orthogonalEdgeStyle;rounded=0;orthogonalLoop=1;jettySize=auto;html=1;fontSize=8;dashed=1;endArrow=openThin;endFill=0;entryX=1;entryY=0.5;entryDx=0;entryDy=0;endSize=10;startSize=10;jumpStyle=arc;strokeWidth=1;startArrow=none;startFill=0;exitX=0;exitY=0.5;exitDx=0;exitDy=0;" edge="1" parent="AY2gD50rp5HrpWtKRoe6-64" source="7BKQluUsZdrJ60i_VSlW-92" target="7BKQluUsZdrJ60i_VSlW-81">
          <mxGeometry x="0.199" y="-10" relative="1" as="geometry">
            <mxPoint x="1110" y="335.5" as="sourcePoint" />
            <mxPoint x="1110" y="444.5" as="targetPoint" />
            <Array as="points">
              <mxPoint x="1530" y="651" />
              <mxPoint x="1210" y="651" />
            </Array>
            <mxPoint as="offset" />
          </mxGeometry>
        </mxCell>
        <mxCell id="7BKQluUsZdrJ60i_VSlW-222" value="&lt;font style=&quot;font-size: 12px;&quot;&gt;&amp;lt;&amp;lt;include&amp;gt;&amp;gt;&lt;/font&gt;" style="edgeStyle=orthogonalEdgeStyle;rounded=0;orthogonalLoop=1;jettySize=auto;html=1;fontSize=8;dashed=1;endArrow=openThin;endFill=0;endSize=10;startSize=10;jumpStyle=none;strokeWidth=1;startArrow=none;startFill=0;exitX=0;exitY=0.5;exitDx=0;exitDy=0;" edge="1" parent="AY2gD50rp5HrpWtKRoe6-64" source="7BKQluUsZdrJ60i_VSlW-81">
          <mxGeometry relative="1" as="geometry">
            <mxPoint x="910" y="585.5" as="sourcePoint" />
            <mxPoint x="1070" y="721" as="targetPoint" />
            <Array as="points">
              <mxPoint x="1030" y="610" />
              <mxPoint x="1030" y="721" />
              <mxPoint x="1070" y="721" />
            </Array>
            <mxPoint as="offset" />
          </mxGeometry>
        </mxCell>
        <mxCell id="7BKQluUsZdrJ60i_VSlW-223" value="&lt;font style=&quot;font-size: 12px;&quot;&gt;&amp;lt;&amp;lt;extend&amp;gt;&amp;gt;&lt;/font&gt;" style="edgeStyle=orthogonalEdgeStyle;rounded=0;orthogonalLoop=1;jettySize=auto;html=1;fontSize=8;dashed=1;endArrow=none;endFill=0;entryX=1;entryY=0.5;entryDx=0;entryDy=0;endSize=10;startSize=10;jumpStyle=arc;strokeWidth=1;startArrow=openThin;startFill=0;" edge="1" parent="AY2gD50rp5HrpWtKRoe6-64" target="7BKQluUsZdrJ60i_VSlW-83">
          <mxGeometry x="-0.2293" relative="1" as="geometry">
            <mxPoint x="1210" y="611" as="sourcePoint" />
            <mxPoint x="1350" y="910" as="targetPoint" />
            <Array as="points">
              <mxPoint x="1250" y="611" />
              <mxPoint x="1250" y="1050" />
            </Array>
            <mxPoint as="offset" />
          </mxGeometry>
        </mxCell>
        <mxCell id="7BKQluUsZdrJ60i_VSlW-224" value="" style="endArrow=none;endSize=10;dashed=1;html=1;rounded=0;entryX=1;entryY=0.5;entryDx=0;entryDy=0;endFill=0;startSize=10;" edge="1" parent="AY2gD50rp5HrpWtKRoe6-64">
          <mxGeometry width="160" relative="1" as="geometry">
            <mxPoint x="1250" y="829.5700000000002" as="sourcePoint" />
            <mxPoint x="1210" y="829.5700000000002" as="targetPoint" />
          </mxGeometry>
        </mxCell>
        <mxCell id="7BKQluUsZdrJ60i_VSlW-225" value="" style="endArrow=none;endSize=10;dashed=1;html=1;rounded=0;entryX=1;entryY=0.5;entryDx=0;entryDy=0;endFill=0;startSize=10;" edge="1" parent="AY2gD50rp5HrpWtKRoe6-64">
          <mxGeometry width="160" relative="1" as="geometry">
            <mxPoint x="1250" y="939.5700000000002" as="sourcePoint" />
            <mxPoint x="1210" y="939.5700000000002" as="targetPoint" />
          </mxGeometry>
        </mxCell>
        <mxCell id="7BKQluUsZdrJ60i_VSlW-227" value="&lt;font style=&quot;font-size: 12px;&quot;&gt;&amp;lt;&amp;lt;extend&amp;gt;&amp;gt;&lt;/font&gt;" style="edgeStyle=orthogonalEdgeStyle;rounded=0;orthogonalLoop=1;jettySize=auto;html=1;fontSize=8;dashed=1;endArrow=none;endFill=0;entryX=1;entryY=0.5;entryDx=0;entryDy=0;endSize=10;startSize=10;jumpStyle=none;strokeWidth=1;startArrow=openThin;startFill=0;fillColor=#e1d5e7;strokeColor=#9673a6;" edge="1" parent="AY2gD50rp5HrpWtKRoe6-64" target="7BKQluUsZdrJ60i_VSlW-85">
          <mxGeometry relative="1" as="geometry">
            <mxPoint x="1530" y="721" as="sourcePoint" />
            <mxPoint x="1310" y="830" as="targetPoint" />
            <Array as="points">
              <mxPoint x="1520" y="721" />
              <mxPoint x="1330" y="721" />
              <mxPoint x="1330" y="1490" />
            </Array>
            <mxPoint as="offset" />
          </mxGeometry>
        </mxCell>
        <mxCell id="7BKQluUsZdrJ60i_VSlW-228" value="" style="endArrow=none;endSize=10;dashed=1;html=1;rounded=0;entryX=1;entryY=0.5;entryDx=0;entryDy=0;endFill=0;startSize=10;fillColor=#e1d5e7;strokeColor=#9673a6;edgeStyle=orthogonalEdgeStyle;" edge="1" parent="AY2gD50rp5HrpWtKRoe6-64" target="7BKQluUsZdrJ60i_VSlW-88">
          <mxGeometry width="160" relative="1" as="geometry">
            <mxPoint x="1330" y="1160" as="sourcePoint" />
            <mxPoint x="1210" y="1159.66" as="targetPoint" />
            <Array as="points">
              <mxPoint x="1300" y="1160" />
              <mxPoint x="1300" y="1160" />
            </Array>
          </mxGeometry>
        </mxCell>
        <mxCell id="7BKQluUsZdrJ60i_VSlW-229" value="" style="endArrow=none;endSize=10;dashed=1;html=1;rounded=0;entryX=1;entryY=0.5;entryDx=0;entryDy=0;endFill=0;startSize=10;fillColor=#e1d5e7;strokeColor=#9673a6;" edge="1" parent="AY2gD50rp5HrpWtKRoe6-64" target="7BKQluUsZdrJ60i_VSlW-89">
          <mxGeometry width="160" relative="1" as="geometry">
            <mxPoint x="1330" y="1269.63" as="sourcePoint" />
            <mxPoint x="1210" y="1269.63" as="targetPoint" />
          </mxGeometry>
        </mxCell>
        <mxCell id="7BKQluUsZdrJ60i_VSlW-231" value="" style="endArrow=none;endSize=10;dashed=1;html=1;rounded=0;endFill=0;startSize=10;edgeStyle=orthogonalEdgeStyle;entryX=1;entryY=0.5;entryDx=0;entryDy=0;jumpStyle=arc;fillColor=#e1d5e7;strokeColor=#9673a6;" edge="1" parent="AY2gD50rp5HrpWtKRoe6-64" target="7BKQluUsZdrJ60i_VSlW-83">
          <mxGeometry width="160" relative="1" as="geometry">
            <mxPoint x="1330" y="1011" as="sourcePoint" />
            <mxPoint x="1210" y="1001" as="targetPoint" />
            <Array as="points">
              <mxPoint x="1330" y="1011" />
              <mxPoint x="1210" y="1011" />
            </Array>
          </mxGeometry>
        </mxCell>
        <mxCell id="7BKQluUsZdrJ60i_VSlW-232" value="" style="endArrow=none;endSize=10;dashed=1;html=1;rounded=0;entryX=1;entryY=0.5;entryDx=0;entryDy=0;endFill=0;startSize=10;" edge="1" parent="AY2gD50rp5HrpWtKRoe6-64">
          <mxGeometry width="160" relative="1" as="geometry">
            <mxPoint x="1710" y="718.8800000000001" as="sourcePoint" />
            <mxPoint x="1670" y="718.8800000000001" as="targetPoint" />
          </mxGeometry>
        </mxCell>
        <mxCell id="7BKQluUsZdrJ60i_VSlW-233" value="" style="endArrow=none;endSize=10;dashed=1;html=1;rounded=0;endFill=0;startSize=10;edgeStyle=orthogonalEdgeStyle;entryX=1;entryY=0.5;entryDx=0;entryDy=0;jumpStyle=arc;fillColor=#e1d5e7;strokeColor=#9673a6;" edge="1" parent="AY2gD50rp5HrpWtKRoe6-64" target="7BKQluUsZdrJ60i_VSlW-84">
          <mxGeometry width="160" relative="1" as="geometry">
            <mxPoint x="1330" y="901" as="sourcePoint" />
            <mxPoint x="1210" y="930" as="targetPoint" />
            <Array as="points">
              <mxPoint x="1330" y="901" />
              <mxPoint x="1210" y="901" />
            </Array>
          </mxGeometry>
        </mxCell>
        <mxCell id="7BKQluUsZdrJ60i_VSlW-235" value="" style="endArrow=none;endSize=10;dashed=1;html=1;rounded=0;endFill=0;startSize=10;edgeStyle=orthogonalEdgeStyle;entryX=1;entryY=0.5;entryDx=0;entryDy=0;jumpStyle=arc;fillColor=#e1d5e7;strokeColor=#9673a6;" edge="1" parent="AY2gD50rp5HrpWtKRoe6-64" target="7BKQluUsZdrJ60i_VSlW-96">
          <mxGeometry width="160" relative="1" as="geometry">
            <mxPoint x="1330" y="791" as="sourcePoint" />
            <mxPoint x="1210" y="824" as="targetPoint" />
            <Array as="points">
              <mxPoint x="1330" y="791" />
              <mxPoint x="1210" y="791" />
            </Array>
          </mxGeometry>
        </mxCell>
        <mxCell id="7BKQluUsZdrJ60i_VSlW-236" value="" style="endArrow=none;endSize=10;dashed=1;html=1;rounded=0;endFill=0;startSize=10;edgeStyle=orthogonalEdgeStyle;jumpStyle=arc;fillColor=#e1d5e7;strokeColor=#9673a6;" edge="1" parent="AY2gD50rp5HrpWtKRoe6-64">
          <mxGeometry width="160" relative="1" as="geometry">
            <mxPoint x="1330" y="721" as="sourcePoint" />
            <mxPoint x="1210" y="721" as="targetPoint" />
            <Array as="points">
              <mxPoint x="1210" y="721" />
            </Array>
          </mxGeometry>
        </mxCell>
        <mxCell id="7BKQluUsZdrJ60i_VSlW-237" value="&lt;font style=&quot;font-size: 12px;&quot;&gt;&amp;lt;&amp;lt;include&amp;gt;&amp;gt;&lt;/font&gt;" style="edgeStyle=orthogonalEdgeStyle;rounded=0;orthogonalLoop=1;jettySize=auto;html=1;fontSize=8;dashed=1;endArrow=openThin;endFill=0;entryX=1;entryY=0.5;entryDx=0;entryDy=0;endSize=10;startSize=10;jumpStyle=arc;strokeWidth=1;startArrow=none;startFill=0;exitX=0;exitY=0.5;exitDx=0;exitDy=0;fillColor=#e51400;strokeColor=#B20000;" edge="1" parent="AY2gD50rp5HrpWtKRoe6-64" source="7BKQluUsZdrJ60i_VSlW-57" target="7BKQluUsZdrJ60i_VSlW-88">
          <mxGeometry x="-0.3963" relative="1" as="geometry">
            <mxPoint x="1380" y="855" as="sourcePoint" />
            <mxPoint x="1380" y="964" as="targetPoint" />
            <Array as="points">
              <mxPoint x="1420" y="830" />
              <mxPoint x="1420" y="1201" />
              <mxPoint x="1210" y="1201" />
            </Array>
            <mxPoint as="offset" />
          </mxGeometry>
        </mxCell>
        <mxCell id="7BKQluUsZdrJ60i_VSlW-238" value="" style="endArrow=openThin;endSize=10;dashed=1;html=1;rounded=0;entryX=1;entryY=0.5;entryDx=0;entryDy=0;endFill=0;startSize=10;fillColor=#e51400;strokeColor=#B20000;edgeStyle=orthogonalEdgeStyle;jumpStyle=arc;" edge="1" parent="AY2gD50rp5HrpWtKRoe6-64" target="7BKQluUsZdrJ60i_VSlW-83">
          <mxGeometry width="160" relative="1" as="geometry">
            <mxPoint x="1420" y="1091" as="sourcePoint" />
            <mxPoint x="1210" y="1101" as="targetPoint" />
            <Array as="points">
              <mxPoint x="1420" y="1091" />
              <mxPoint x="1210" y="1091" />
            </Array>
          </mxGeometry>
        </mxCell>
        <mxCell id="7BKQluUsZdrJ60i_VSlW-240" value="" style="endArrow=openThin;endSize=10;dashed=1;html=1;rounded=0;entryX=1;entryY=0.5;entryDx=0;entryDy=0;endFill=0;startSize=10;fillColor=#e51400;strokeColor=#B20000;edgeStyle=orthogonalEdgeStyle;jumpStyle=arc;" edge="1" parent="AY2gD50rp5HrpWtKRoe6-64" target="7BKQluUsZdrJ60i_VSlW-96">
          <mxGeometry width="160" relative="1" as="geometry">
            <mxPoint x="1420.04" y="873" as="sourcePoint" />
            <mxPoint x="1210.04" y="831" as="targetPoint" />
            <Array as="points">
              <mxPoint x="1420" y="871" />
              <mxPoint x="1210" y="871" />
            </Array>
          </mxGeometry>
        </mxCell>
        <mxCell id="7BKQluUsZdrJ60i_VSlW-242" value="" style="endArrow=openThin;endSize=10;dashed=1;html=1;rounded=0;endFill=0;startSize=10;fillColor=#e51400;strokeColor=#B20000;edgeStyle=orthogonalEdgeStyle;jumpStyle=arc;entryX=1;entryY=0.5;entryDx=0;entryDy=0;" edge="1" parent="AY2gD50rp5HrpWtKRoe6-64" target="7BKQluUsZdrJ60i_VSlW-81">
          <mxGeometry width="160" relative="1" as="geometry">
            <mxPoint x="1420" y="761" as="sourcePoint" />
            <mxPoint x="1210" y="611" as="targetPoint" />
            <Array as="points">
              <mxPoint x="1420" y="571" />
              <mxPoint x="1210" y="571" />
            </Array>
          </mxGeometry>
        </mxCell>
        <mxCell id="7BKQluUsZdrJ60i_VSlW-243" value="" style="endArrow=none;endSize=10;dashed=1;html=1;rounded=0;entryX=1;entryY=0.5;entryDx=0;entryDy=0;endFill=0;startSize=10;" edge="1" parent="AY2gD50rp5HrpWtKRoe6-64">
          <mxGeometry width="160" relative="1" as="geometry">
            <mxPoint x="1530" y="389.73" as="sourcePoint" />
            <mxPoint x="1490" y="389.73" as="targetPoint" />
          </mxGeometry>
        </mxCell>
        <mxCell id="7BKQluUsZdrJ60i_VSlW-244" value="&lt;font style=&quot;font-size: 12px;&quot;&gt;&amp;lt;&amp;lt;include&amp;gt;&amp;gt;&lt;/font&gt;" style="edgeStyle=orthogonalEdgeStyle;rounded=0;orthogonalLoop=1;jettySize=auto;html=1;fontSize=8;dashed=1;endArrow=openThin;endFill=0;endSize=10;startSize=10;jumpStyle=none;strokeWidth=1;startArrow=none;startFill=0;exitX=1;exitY=0.5;exitDx=0;exitDy=0;entryX=1;entryY=0.5;entryDx=0;entryDy=0;" edge="1" parent="AY2gD50rp5HrpWtKRoe6-64" source="7BKQluUsZdrJ60i_VSlW-105" target="7BKQluUsZdrJ60i_VSlW-107">
          <mxGeometry x="-0.3667" relative="1" as="geometry">
            <mxPoint x="920" y="721" as="sourcePoint" />
            <mxPoint x="920" y="832" as="targetPoint" />
            <Array as="points">
              <mxPoint x="790" y="606" />
              <mxPoint x="790" y="826" />
            </Array>
            <mxPoint as="offset" />
          </mxGeometry>
        </mxCell>
        <mxCell id="7BKQluUsZdrJ60i_VSlW-245" value="" style="endArrow=openThin;endSize=10;dashed=1;html=1;rounded=0;entryX=1;entryY=0.5;entryDx=0;entryDy=0;endFill=0;startSize=10;" edge="1" parent="AY2gD50rp5HrpWtKRoe6-64" target="7BKQluUsZdrJ60i_VSlW-106">
          <mxGeometry width="160" relative="1" as="geometry">
            <mxPoint x="790" y="715.5999999999999" as="sourcePoint" />
            <mxPoint x="750" y="715.5999999999999" as="targetPoint" />
          </mxGeometry>
        </mxCell>
        <mxCell id="7BKQluUsZdrJ60i_VSlW-246" value="&lt;font style=&quot;font-size: 12px;&quot;&gt;&amp;lt;&amp;lt;include&amp;gt;&amp;gt;&lt;/font&gt;" style="edgeStyle=orthogonalEdgeStyle;rounded=0;orthogonalLoop=1;jettySize=auto;html=1;fontSize=8;dashed=1;endArrow=openThin;endFill=0;endSize=10;startSize=10;jumpStyle=none;strokeWidth=1;startArrow=none;startFill=0;exitX=0;exitY=0.5;exitDx=0;exitDy=0;entryX=0;entryY=0.5;entryDx=0;entryDy=0;" edge="1" parent="AY2gD50rp5HrpWtKRoe6-64" source="7BKQluUsZdrJ60i_VSlW-94" target="7BKQluUsZdrJ60i_VSlW-99">
          <mxGeometry x="-0.0127" relative="1" as="geometry">
            <mxPoint x="600" y="1158" as="sourcePoint" />
            <mxPoint x="600" y="1269" as="targetPoint" />
            <Array as="points">
              <mxPoint x="570" y="1160" />
              <mxPoint x="570" y="1710" />
            </Array>
            <mxPoint as="offset" />
          </mxGeometry>
        </mxCell>
        <mxCell id="7BKQluUsZdrJ60i_VSlW-247" value="" style="endArrow=none;endSize=10;dashed=1;html=1;rounded=0;entryX=1;entryY=0.5;entryDx=0;entryDy=0;endFill=0;startSize=10;startArrow=openThin;startFill=0;exitX=0;exitY=0.5;exitDx=0;exitDy=0;" edge="1" parent="AY2gD50rp5HrpWtKRoe6-64" source="7BKQluUsZdrJ60i_VSlW-102">
          <mxGeometry width="160" relative="1" as="geometry">
            <mxPoint x="610" y="1269.72" as="sourcePoint" />
            <mxPoint x="570" y="1270" as="targetPoint" />
          </mxGeometry>
        </mxCell>
        <mxCell id="7BKQluUsZdrJ60i_VSlW-248" value="" style="endArrow=none;endSize=10;dashed=1;html=1;rounded=0;entryX=0.5;entryY=1;entryDx=0;entryDy=0;endFill=0;startSize=10;startArrow=openThin;startFill=0;exitX=0.5;exitY=0;exitDx=0;exitDy=0;" edge="1" parent="AY2gD50rp5HrpWtKRoe6-64" source="7BKQluUsZdrJ60i_VSlW-95" target="7BKQluUsZdrJ60i_VSlW-102">
          <mxGeometry width="160" relative="1" as="geometry">
            <mxPoint x="610" y="1379.72" as="sourcePoint" />
            <mxPoint x="570" y="1380" as="targetPoint" />
          </mxGeometry>
        </mxCell>
        <mxCell id="7BKQluUsZdrJ60i_VSlW-256" value="&amp;lt;&amp;lt;include&amp;gt;&amp;gt;" style="edgeLabel;html=1;align=center;verticalAlign=middle;resizable=0;points=[];" vertex="1" connectable="0" parent="7BKQluUsZdrJ60i_VSlW-248">
          <mxGeometry x="0.0731" relative="1" as="geometry">
            <mxPoint y="-2" as="offset" />
          </mxGeometry>
        </mxCell>
        <mxCell id="7BKQluUsZdrJ60i_VSlW-249" value="" style="endArrow=none;endSize=10;dashed=1;html=1;rounded=0;entryX=1;entryY=0.5;entryDx=0;entryDy=0;endFill=0;startSize=10;startArrow=openThin;startFill=0;exitX=0;exitY=0.5;exitDx=0;exitDy=0;" edge="1" parent="AY2gD50rp5HrpWtKRoe6-64" source="7BKQluUsZdrJ60i_VSlW-103">
          <mxGeometry width="160" relative="1" as="geometry">
            <mxPoint x="610" y="1489.81" as="sourcePoint" />
            <mxPoint x="570" y="1489.81" as="targetPoint" />
          </mxGeometry>
        </mxCell>
        <mxCell id="7BKQluUsZdrJ60i_VSlW-251" value="&amp;lt;&amp;lt;include&amp;gt;&amp;gt;" style="endArrow=none;endSize=10;dashed=1;html=1;rounded=0;entryX=0.5;entryY=1;entryDx=0;entryDy=0;endFill=0;startSize=10;startArrow=openThin;startFill=0;" edge="1" parent="AY2gD50rp5HrpWtKRoe6-64" source="7BKQluUsZdrJ60i_VSlW-97" target="7BKQluUsZdrJ60i_VSlW-103">
          <mxGeometry x="0.2" width="160" relative="1" as="geometry">
            <mxPoint x="610" y="1599.88" as="sourcePoint" />
            <mxPoint x="570" y="1599.69" as="targetPoint" />
            <mxPoint as="offset" />
          </mxGeometry>
        </mxCell>
        <mxCell id="7BKQluUsZdrJ60i_VSlW-252" value="&lt;font style=&quot;font-size: 12px;&quot;&gt;&amp;lt;&amp;lt;extend&amp;gt;&amp;gt;&lt;/font&gt;" style="edgeStyle=orthogonalEdgeStyle;rounded=0;orthogonalLoop=1;jettySize=auto;html=1;fontSize=8;dashed=1;endArrow=none;endFill=0;entryX=1;entryY=0.5;entryDx=0;entryDy=0;endSize=10;startSize=10;jumpStyle=none;strokeWidth=1;startArrow=openThin;startFill=0;exitX=1;exitY=0.5;exitDx=0;exitDy=0;" edge="1" parent="AY2gD50rp5HrpWtKRoe6-64" source="7BKQluUsZdrJ60i_VSlW-94" target="7BKQluUsZdrJ60i_VSlW-100">
          <mxGeometry x="-0.1595" relative="1" as="geometry">
            <mxPoint x="1020" y="1320" as="sourcePoint" />
            <mxPoint x="1020" y="1660" as="targetPoint" />
            <Array as="points">
              <mxPoint x="790" y="1160" />
              <mxPoint x="790" y="1820" />
            </Array>
            <mxPoint as="offset" />
          </mxGeometry>
        </mxCell>
        <mxCell id="7BKQluUsZdrJ60i_VSlW-253" value="&lt;font style=&quot;font-size: 12px;&quot;&gt;&amp;lt;&amp;lt;include&amp;gt;&amp;gt;&lt;/font&gt;" style="edgeStyle=orthogonalEdgeStyle;rounded=0;orthogonalLoop=1;jettySize=auto;html=1;fontSize=8;dashed=1;endArrow=openThin;endFill=0;endSize=10;startSize=10;jumpStyle=none;strokeWidth=1;startArrow=none;startFill=0;exitX=0;exitY=0.5;exitDx=0;exitDy=0;entryX=1;entryY=0.5;entryDx=0;entryDy=0;" edge="1" parent="AY2gD50rp5HrpWtKRoe6-64" source="7BKQluUsZdrJ60i_VSlW-88" target="7BKQluUsZdrJ60i_VSlW-94">
          <mxGeometry relative="1" as="geometry">
            <mxPoint x="940" y="1091" as="sourcePoint" />
            <mxPoint x="760" y="1160" as="targetPoint" />
            <Array as="points">
              <mxPoint x="1070" y="1111" />
              <mxPoint x="750" y="1111" />
            </Array>
            <mxPoint as="offset" />
          </mxGeometry>
        </mxCell>
        <mxCell id="7BKQluUsZdrJ60i_VSlW-257" value="&lt;font style=&quot;font-size: 14px;&quot;&gt;Edit&amp;nbsp;Flashcard&lt;/font&gt;" style="ellipse;whiteSpace=wrap;html=1;fillColor=#dae8fc;strokeColor=#6c8ebf;" vertex="1" parent="AY2gD50rp5HrpWtKRoe6-64">
          <mxGeometry x="1070" y="1345" width="140" height="70" as="geometry" />
        </mxCell>
        <mxCell id="7BKQluUsZdrJ60i_VSlW-258" value="&lt;font style=&quot;font-size: 12px;&quot;&gt;&amp;lt;&amp;lt;extend&amp;gt;&amp;gt;&lt;/font&gt;" style="edgeStyle=orthogonalEdgeStyle;rounded=0;orthogonalLoop=1;jettySize=auto;html=1;fontSize=8;dashed=1;endArrow=none;endFill=0;endSize=10;startSize=10;jumpStyle=none;strokeWidth=1;startArrow=openThin;startFill=0;exitX=0;exitY=0.5;exitDx=0;exitDy=0;entryX=0;entryY=0.5;entryDx=0;entryDy=0;" edge="1" parent="AY2gD50rp5HrpWtKRoe6-64" source="7BKQluUsZdrJ60i_VSlW-89" target="7BKQluUsZdrJ60i_VSlW-91">
          <mxGeometry x="-0.3933" relative="1" as="geometry">
            <mxPoint x="1069.94" y="1381" as="sourcePoint" />
            <mxPoint x="1069.94" y="1492" as="targetPoint" />
            <Array as="points">
              <mxPoint x="1030" y="1270" />
              <mxPoint x="1030" y="1490" />
            </Array>
            <mxPoint as="offset" />
          </mxGeometry>
        </mxCell>
        <mxCell id="7BKQluUsZdrJ60i_VSlW-259" value="" style="endArrow=none;endSize=10;dashed=1;html=1;rounded=0;entryX=1;entryY=0.5;entryDx=0;entryDy=0;endFill=0;startSize=10;" edge="1" parent="AY2gD50rp5HrpWtKRoe6-64">
          <mxGeometry width="160" relative="1" as="geometry">
            <mxPoint x="1070" y="1379.64" as="sourcePoint" />
            <mxPoint x="1030" y="1379.64" as="targetPoint" />
          </mxGeometry>
        </mxCell>
        <mxCell id="7BKQluUsZdrJ60i_VSlW-260" value="&lt;font style=&quot;font-size: 12px;&quot;&gt;&amp;lt;&amp;lt;extend&amp;gt;&amp;gt;&lt;/font&gt;" style="edgeStyle=orthogonalEdgeStyle;rounded=0;orthogonalLoop=1;jettySize=auto;html=1;fontSize=8;dashed=1;endArrow=none;endFill=0;entryX=1;entryY=0.5;entryDx=0;entryDy=0;endSize=10;startSize=10;jumpStyle=none;strokeWidth=1;startArrow=openThin;startFill=0;exitX=0;exitY=0.5;exitDx=0;exitDy=0;fillColor=#e1d5e7;strokeColor=#9673a6;" edge="1" parent="AY2gD50rp5HrpWtKRoe6-64" source="7BKQluUsZdrJ60i_VSlW-257" target="7BKQluUsZdrJ60i_VSlW-101">
          <mxGeometry relative="1" as="geometry">
            <mxPoint x="900" y="1251" as="sourcePoint" />
            <mxPoint x="900" y="1911" as="targetPoint" />
            <Array as="points">
              <mxPoint x="1070" y="1421" />
              <mxPoint x="870" y="1421" />
              <mxPoint x="870" y="1930" />
            </Array>
            <mxPoint as="offset" />
          </mxGeometry>
        </mxCell>
        <mxCell id="7BKQluUsZdrJ60i_VSlW-261" value="" style="endArrow=none;endSize=10;dashed=1;html=1;rounded=0;entryX=1;entryY=0.5;entryDx=0;entryDy=0;endFill=0;startSize=10;fillColor=#e1d5e7;strokeColor=#9673a6;edgeStyle=orthogonalEdgeStyle;" edge="1" parent="AY2gD50rp5HrpWtKRoe6-64" target="7BKQluUsZdrJ60i_VSlW-100">
          <mxGeometry width="160" relative="1" as="geometry">
            <mxPoint x="870" y="1855" as="sourcePoint" />
            <mxPoint x="750" y="1855" as="targetPoint" />
            <Array as="points">
              <mxPoint x="750" y="1855" />
            </Array>
          </mxGeometry>
        </mxCell>
        <mxCell id="7BKQluUsZdrJ60i_VSlW-265" value="" style="endArrow=none;endSize=10;dashed=1;html=1;rounded=0;entryX=1;entryY=0.5;entryDx=0;entryDy=0;endFill=0;startSize=10;fillColor=#e1d5e7;strokeColor=#9673a6;" edge="1" parent="AY2gD50rp5HrpWtKRoe6-64">
          <mxGeometry width="160" relative="1" as="geometry">
            <mxPoint x="870" y="1709.72" as="sourcePoint" />
            <mxPoint x="750" y="1710.09" as="targetPoint" />
          </mxGeometry>
        </mxCell>
        <mxCell id="7BKQluUsZdrJ60i_VSlW-264" value="" style="endArrow=none;endSize=10;dashed=1;html=1;rounded=0;entryX=1;entryY=0.5;entryDx=0;entryDy=0;endFill=0;startSize=10;fillColor=#e1d5e7;strokeColor=#9673a6;edgeStyle=orthogonalEdgeStyle;" edge="1" parent="AY2gD50rp5HrpWtKRoe6-64">
          <mxGeometry width="160" relative="1" as="geometry">
            <mxPoint x="870" y="1421" as="sourcePoint" />
            <mxPoint x="750" y="1379.95" as="targetPoint" />
            <Array as="points">
              <mxPoint x="870" y="1421" />
              <mxPoint x="870" y="1380" />
            </Array>
          </mxGeometry>
        </mxCell>
        <mxCell id="7BKQluUsZdrJ60i_VSlW-266" value="" style="endArrow=none;endSize=10;dashed=1;html=1;rounded=0;entryX=1;entryY=0.5;entryDx=0;entryDy=0;endFill=0;startSize=10;fillColor=#e1d5e7;strokeColor=#9673a6;edgeStyle=orthogonalEdgeStyle;" edge="1" parent="AY2gD50rp5HrpWtKRoe6-64">
          <mxGeometry width="160" relative="1" as="geometry">
            <mxPoint x="870" y="1381" as="sourcePoint" />
            <mxPoint x="750" y="1271" as="targetPoint" />
            <Array as="points">
              <mxPoint x="870" y="1312.05" />
              <mxPoint x="870" y="1271.05" />
            </Array>
          </mxGeometry>
        </mxCell>
        <mxCell id="7BKQluUsZdrJ60i_VSlW-267" value="" style="endArrow=none;endSize=10;dashed=1;html=1;rounded=0;entryX=1;entryY=0.5;entryDx=0;entryDy=0;endFill=0;startSize=10;fillColor=#e1d5e7;strokeColor=#9673a6;" edge="1" parent="AY2gD50rp5HrpWtKRoe6-64">
          <mxGeometry width="160" relative="1" as="geometry">
            <mxPoint x="870" y="1599.47" as="sourcePoint" />
            <mxPoint x="750" y="1599.84" as="targetPoint" />
          </mxGeometry>
        </mxCell>
        <mxCell id="7BKQluUsZdrJ60i_VSlW-268" value="" style="endArrow=none;endSize=10;dashed=1;html=1;rounded=0;entryX=1;entryY=0.5;entryDx=0;entryDy=0;endFill=0;startSize=10;fillColor=#e1d5e7;strokeColor=#9673a6;" edge="1" parent="AY2gD50rp5HrpWtKRoe6-64">
          <mxGeometry width="160" relative="1" as="geometry">
            <mxPoint x="870" y="1489.47" as="sourcePoint" />
            <mxPoint x="750" y="1489.84" as="targetPoint" />
          </mxGeometry>
        </mxCell>
        <mxCell id="7BKQluUsZdrJ60i_VSlW-127" value="" style="endArrow=none;html=1;edgeStyle=orthogonalEdgeStyle;rounded=0;entryX=0.499;entryY=1;entryDx=0;entryDy=0;entryPerimeter=0;" edge="1" parent="1" target="7BKQluUsZdrJ60i_VSlW-80">
          <mxGeometry relative="1" as="geometry">
            <mxPoint x="-1629" y="-722" as="sourcePoint" />
            <mxPoint x="-1599" y="-822" as="targetPoint" />
            <Array as="points">
              <mxPoint x="-1629" y="-802" />
            </Array>
          </mxGeometry>
        </mxCell>
        <mxCell id="7BKQluUsZdrJ60i_VSlW-144" value="" style="endArrow=none;html=1;edgeStyle=orthogonalEdgeStyle;rounded=0;exitX=0;exitY=0.5;exitDx=0;exitDy=0;fillColor=#d5e8d4;strokeColor=#82b366;jumpStyle=arc;" edge="1" parent="1" source="7BKQluUsZdrJ60i_VSlW-92">
          <mxGeometry relative="1" as="geometry">
            <mxPoint x="-949" y="-2286" as="sourcePoint" />
            <mxPoint x="-939" y="-2565" as="targetPoint" />
            <Array as="points">
              <mxPoint x="-779" y="-2236" />
              <mxPoint x="-939" y="-2236" />
            </Array>
          </mxGeometry>
        </mxCell>
        <mxCell id="7BKQluUsZdrJ60i_VSlW-147" value="" style="endArrow=none;html=1;edgeStyle=orthogonalEdgeStyle;rounded=0;entryX=0;entryY=0.5;entryDx=0;entryDy=0;fillColor=#d5e8d4;strokeColor=#82b366;jumpStyle=arc;" edge="1" parent="1" target="7BKQluUsZdrJ60i_VSlW-56">
          <mxGeometry relative="1" as="geometry">
            <mxPoint x="-939" y="-2236" as="sourcePoint" />
            <mxPoint x="-849" y="-2296" as="targetPoint" />
            <Array as="points">
              <mxPoint x="-939" y="-1757" />
            </Array>
          </mxGeometry>
        </mxCell>
        <mxCell id="7BKQluUsZdrJ60i_VSlW-239" value="" style="endArrow=openThin;endSize=10;dashed=1;html=1;rounded=0;entryX=1;entryY=0.5;entryDx=0;entryDy=0;endFill=0;startSize=10;fillColor=#e51400;strokeColor=#B20000;edgeStyle=orthogonalEdgeStyle;jumpStyle=arc;" edge="1" parent="1" target="7BKQluUsZdrJ60i_VSlW-84">
          <mxGeometry width="160" relative="1" as="geometry">
            <mxPoint x="-889" y="-1825" as="sourcePoint" />
            <mxPoint x="-1099" y="-1866" as="targetPoint" />
            <Array as="points">
              <mxPoint x="-889" y="-1826" />
              <mxPoint x="-1099" y="-1826" />
            </Array>
          </mxGeometry>
        </mxCell>
        <mxCell id="7BKQluUsZdrJ60i_VSlW-241" value="" style="endArrow=openThin;endSize=10;dashed=1;html=1;rounded=0;entryX=1;entryY=0.5;entryDx=0;entryDy=0;endFill=0;startSize=10;fillColor=#e51400;strokeColor=#B20000;edgeStyle=orthogonalEdgeStyle;jumpStyle=arc;" edge="1" parent="1" target="7BKQluUsZdrJ60i_VSlW-87">
          <mxGeometry width="160" relative="1" as="geometry">
            <mxPoint x="-889" y="-1976" as="sourcePoint" />
            <mxPoint x="-1089" y="-1967" as="targetPoint" />
            <Array as="points">
              <mxPoint x="-889" y="-2046" />
              <mxPoint x="-1099" y="-2046" />
            </Array>
          </mxGeometry>
        </mxCell>
      </root>
    </mxGraphModel>
  </diagram>
</mxfile>
